Coordinates
version=1
nRows=12
nColumns=34
inDegrees=no

Units are S.I. units (second, meters, Newtons, ...)
If the header above contains a line with 'inDegrees', this indicates whether rotational values are in degrees (yes) or radians (no).

endheader
time	pelvis_tilt	pelvis_list	pelvis_rotation	pelvis_tx	pelvis_ty	pelvis_tz	hip_flexion_r	hip_adduction_r	hip_rotation_r	knee_angle_r	ankle_angle_r	subtalar_angle_r	mtp_angle_r	hip_flexion_l	hip_adduction_l	hip_rotation_l	knee_angle_l	ankle_angle_l	subtalar_angle_l	mtp_angle_l	lumbar_extension	lumbar_bending	lumbar_rotation	arm_flex_r	arm_add_r	arm_rot_r	elbow_flex_r	pro_sup_r	arm_flex_l	arm_add_l	arm_rot_l	elbow_flex_l	pro_sup_l
10.13	-0.0816837	0.00580641	-0.115187	-0.150173	1.02707	-0.569849	0.365692	-0.0769473	-0.155737	0.657531	0.374755	-0.0407038	-0.0572624	0.366008	-0.292427	-0.336383	0.750867	0.241243	-0.0376549	-0.0572626	-0.399112	0.00687825	0.0895501	0.196352	-0.204204	-0.105393	0.962476	1.66685	0.131018	-0.168362	-0.155069	0.982308	1.5703
10.14	-0.0766969	0.00483895	-0.117769	-0.147971	1.03092	-0.5712	0.345227	-0.0766832	-0.15829	0.631128	0.366051	-0.031868	-0.0572624	0.342563	-0.288575	-0.349511	0.724334	0.241582	-0.0266121	-0.0572626	-0.395254	0.00747622	0.0891562	0.186615	-0.201258	-0.108108	0.944665	1.67544	0.12187	-0.164208	-0.157583	0.962018	1.56604
10.15	-0.0715552	0.00375116	-0.120362	-0.145757	1.03462	-0.572545	0.324523	-0.0762657	-0.160842	0.604616	0.357434	-0.0227109	-0.0572623	0.319088	-0.284729	-0.362985	0.697938	0.241843	-0.014782	-0.0572626	-0.391495	0.00812447	0.0888321	0.177042	-0.198388	-0.111164	0.926926	1.68465	0.112968	-0.160257	-0.15987	0.94183	1.56194
10.16	-0.0662186	0.00256216	-0.122991	-0.143532	1.03817	-0.573877	0.303567	-0.0757059	-0.163348	0.578044	0.348899	-0.0132637	-0.0572623	0.295546	-0.280867	-0.376808	0.671712	0.242024	-0.0021693	-0.0572625	-0.387879	0.00878517	0.0885806	0.16764	-0.19564	-0.114239	0.909316	1.69323	0.104283	-0.15649	-0.162089	0.921812	1.55833
10.17	-0.0606462	0.00129381	-0.125665	-0.141298	1.04157	-0.575195	0.282356	-0.0750316	-0.165778	0.551483	0.340439	-0.00356228	-0.0572623	0.271916	-0.276948	-0.390933	0.645697	0.242103	0.011147	-0.0572625	-0.384462	0.0094308	0.0883733	0.158423	-0.193054	-0.117005	0.891927	1.69984	0.0957735	-0.152873	-0.16443	0.902056	1.55551
10.18	-0.0548126	-3.82363e-05	-0.128369	-0.139062	1.04481	-0.576501	0.260908	-0.074274	-0.168124	0.525012	0.332047	0.00634153	-0.0572623	0.24822	-0.272923	-0.405244	0.619949	0.242055	0.025012	-0.0572625	-0.38129	0.010057	0.0881504	0.149407	-0.190661	-0.119217	0.874863	1.70349	0.0873881	-0.149365	-0.167093	0.88267	1.55368
10.19	-0.0487179	-0.0014266	-0.131059	-0.13683	1.0479	-0.5778	0.239267	-0.0734602	-0.170392	0.49872	0.323717	0.016375	-0.0572623	0.224533	-0.268745	-0.419571	0.594542	0.24185	0.0392166	-0.0572625	-0.378393	0.0106833	0.0878272	0.140616	-0.188476	-0.120785	0.858213	1.70384	0.0790716	-0.145929	-0.170253	0.863773	1.55298
10.2	-0.0423832	-0.00286733	-0.133685	-0.13461	1.05083	-0.5791	0.217504	-0.0726143	-0.172592	0.472693	0.315447	0.0264508	-0.0572623	0.20097	-0.264385	-0.433721	0.569572	0.241466	0.0535342	-0.0572624	-0.375786	0.0113392	0.0873137	0.132075	-0.186492	-0.121787	0.842028	1.70122	0.0707679	-0.142535	-0.174035	0.845499	1.55344
10.21	-0.0358389	-0.00435531	-0.136203	-0.132413	1.05359	-0.580405	0.1957	-0.0717574	-0.174718	0.447015	0.307244	0.0364773	-0.0572623	0.17766	-0.259828	-0.447526	0.54515	0.240895	0.0677557	-0.0572624	-0.373473	0.0120482	0.0865386	0.123814	-0.184688	-0.122438	0.826315	1.69656	0.0624239	-0.139169	-0.178494	0.827993	1.55496
10.22	-0.0291167	-0.00588536	-0.138595	-0.130248	1.05618	-0.58172	0.173939	-0.0709038	-0.176745	0.421767	0.299126	0.0463694	-0.0572623	0.154721	-0.255085	-0.460865	0.521398	0.240143	0.0817163	-0.0572624	-0.371452	0.01282	0.0854694	0.115865	-0.183042	-0.122998	0.81104	1.69101	0.0539947	-0.135829	-0.183612	0.81141	1.55731
10.23	-0.0222453	-0.0074564	-0.140871	-0.128124	1.05861	-0.583043	0.152294	-0.0700568	-0.178625	0.397018	0.29112	0.056059	-0.0572623	0.132249	-0.250197	-0.473681	0.498437	0.239239	0.0953104	-0.0572623	-0.369716	0.0136516	0.0841192	0.108258	-0.181537	-0.123678	0.79615	1.68562	0.0454512	-0.132519	-0.18931	0.795905	1.56006
10.24	-0.0152472	-0.00907582	-0.143058	-0.126045	1.06087	-0.58437	0.130822	-0.0692054	-0.180296	0.372821	0.283251	0.0654951	-0.0572623	0.110308	-0.245226	-0.485968	0.476382	0.23823	0.108488	-0.0572623	-0.36826	0.0145349	0.0825425	0.101002	-0.180171	-0.12459	0.781609	1.68104	0.0367913	-0.129248	-0.19547	0.781594	1.56281
